<svg width="130" height="77" viewBox="0 0 130 77" fill="none" xmlns="http://www.w3.org/2000/svg">
<path d="M98.5518 74.3014L99.7262 68.6845L101.564 60.0039L96.2029 44.583L94.1094 38.5576H104.118L105.649 43.9192L107.794 51.4764L113.768 43.1532L117.036 38.5576H127.657L123.113 44.3787L110.96 60.0039L108.815 70.2164L107.947 74.3014H98.5518Z" fill="#C6F24E"/>
<path d="M58.8438 47.2382L60.682 38.5576H90.7067L88.8685 47.2382H82.1283H78.5539L73.6519 70.2164L72.7838 74.3014H63.3883L64.6138 68.6845L69.1584 47.2382H65.5329H58.8438Z" fill="#C6F24E"/>
<path d="M37.3047 74.3014L38.3259 69.4504L43.9939 42.6426L44.8619 38.5576H54.2574L53.2362 43.4086L47.5683 70.2164L46.7002 74.3014H37.3047Z" fill="#C6F24E"/>
<path d="M18.0071 75.0676C9.27537 75.0676 3.25 69.655 3.25 59.7489C3.25 48.1066 10.603 37.792 23.1644 37.792C28.6791 37.792 32.8663 39.6302 35.0109 42.3876L32.8663 51.681C30.9259 48.3619 27.4026 46.3194 23.3176 46.3194C17.0369 46.3194 13.0029 50.9151 13.0029 57.0936C13.0029 63.0169 17.0369 66.0296 22.7048 66.0296C26.7388 66.0296 29.9046 64.3956 31.7939 62.5573C30.5174 70.472 26.1771 75.0676 18.0071 75.0676Z" fill="#C6F24E"/>
<path d="M78.3828 10.2382L80.2211 1.55762H110.246L108.408 10.2382H101.667H98.0929L93.1909 33.2164L92.3229 37.3014H82.9274L84.1529 31.6845L88.6974 10.2382H85.072H78.3828Z" fill="#C6F24E"/>
<path d="M56.8438 37.3014L57.865 32.4504L63.5329 5.64262L64.401 1.55762H73.7965L72.7753 6.40856L67.1073 33.2164L66.2393 37.3014H56.8438Z" fill="#C6F24E"/>
<path d="M35.9321 38.0676C26.1281 38.0676 19.8984 32.4507 19.8984 22.7999C19.8984 9.88112 28.6812 0.791992 41.5489 0.791992C46.9616 0.791992 51.6593 2.52812 54.2124 5.59187L52.1189 14.5789C49.8721 11.2087 46.2978 9.31943 41.4468 9.31943C34.0938 9.31943 29.4982 14.1704 29.4982 21.9319C29.4982 26.7828 32.3577 29.7444 37.1065 29.7444C38.3831 29.7444 39.7107 29.5912 40.5788 29.1827L41.5489 24.2807H34.1959L35.6257 16.8256H52.4763L51.4551 21.6766L48.8509 33.8294C45.5829 36.3826 40.8851 38.0676 35.9321 38.0676Z" fill="#C6F24E"/>
<path d="M104.711 37.7666L106.407 43.7021L108.104 49.6826L113.121 42.6924L116.388 38.0996L116.624 37.7666H129.276L123.733 44.8662L123.732 44.8652L111.692 60.3457L109.586 70.3799L108.585 75.0938H97.5732L98.9473 68.5225L98.9482 68.5205L100.739 60.0566L95.4512 44.8438L92.9922 37.7666H104.711ZM94.1055 38.5576L101.561 60.0039L99.7227 68.6846L98.5479 74.3018H107.943L108.812 70.2168L110.956 60.0039L123.109 44.3789L127.653 38.5576H117.032L113.765 43.1533L107.79 51.4766L105.646 43.9199L104.113 38.5576H94.1055Z" fill="#C6F24E"/>
<path d="M91.6758 37.7666L89.5029 48.0303H79.1865L73.417 75.0938H62.3975L63.833 68.5166L68.1738 48.0303H57.8594L60.0332 37.7666H91.6758ZM60.6748 38.5576L58.8359 47.2383H69.1514L64.6064 68.6846L63.3809 74.3018H72.7764L78.5459 47.2383H88.8613L90.6992 38.5576H60.6748Z" fill="#C6F24E"/>
<path d="M55.2324 37.7666L48.3418 70.3809L47.3408 75.0938H36.3281L37.5508 69.2881L43.2188 42.4795L44.2197 37.7666H55.2324ZM44.8613 38.5576L43.9932 42.6426L37.3037 74.3018H46.6992L47.5674 70.2168L54.2568 38.5576H44.8613Z" fill="#C6F24E"/>
<path d="M12.998 57.0938C12.998 50.9152 17.0318 46.3193 23.3125 46.3193L23.6934 46.3252C27.6158 46.4481 30.9815 48.4653 32.8613 51.6807L35.0059 42.3877C32.9282 39.7164 28.9334 37.9082 23.6719 37.7979L23.1592 37.792C10.5978 37.792 3.24512 48.1068 3.24512 59.749L3.24902 60.21C3.43063 69.6704 9.21849 74.8999 17.5947 75.0635L18.002 75.0674C26.1718 75.0673 30.5125 70.4722 31.7891 62.5576C29.8997 64.3959 26.7332 66.0293 22.6992 66.0293V65.2383C26.5167 65.2383 29.4874 63.6918 31.2363 61.9902L32.9512 60.3213L32.5703 62.6836C31.9146 66.7489 30.4563 70.0607 28.0234 72.3564C25.5794 74.6627 22.2413 75.8593 18.002 75.8594C13.4722 75.8594 9.56574 74.4524 6.79004 71.6836C4.01271 68.9131 2.45314 64.8647 2.45312 59.749C2.45312 47.7998 10.0408 37 23.1592 37C28.6484 37 33.0066 38.7723 35.4043 41.6221L35.6309 41.9014L35.8613 42.1992L35.7773 42.5654L33.1836 53.8018L32.1777 52.0811C30.3827 49.0107 27.1229 47.1114 23.3125 47.1113C20.3755 47.1113 18.012 48.1805 16.3789 49.9297C14.7404 51.6848 13.7891 54.1767 13.7891 57.0938L13.7998 57.6045C13.9082 60.1113 14.8203 61.9478 16.2432 63.1855C17.777 64.5197 19.9976 65.2382 22.6992 65.2383V66.0293C17.2086 66.0292 13.2518 63.2022 13.0098 57.6406L12.998 57.0938Z" fill="#C6F24E"/>
<path d="M111.224 0.766602L109.05 11.0303H98.7344L92.9648 38.0938H81.9453L83.3799 31.5166L87.7217 11.0303H77.4062L79.5801 0.766602H111.224ZM80.2217 1.55762L78.3838 10.2383H88.6982L84.1533 31.6846L82.9277 37.3018H92.3232L98.0938 10.2383H108.408L110.246 1.55762H80.2217Z" fill="#C6F24E"/>
<path d="M74.7715 0.766602L73.5498 6.57227L67.8809 33.3809L66.8799 38.0938H55.8672L57.0898 32.2881L62.7578 5.47949L63.7598 0.766602H74.7715ZM64.4004 1.55762L63.5322 5.64258L56.8428 37.3018H66.2383L67.1064 33.2168L73.7959 1.55762H64.4004Z" fill="#C6F24E"/>
<path d="M41.5508 0C46.9264 0 51.7547 1.66766 54.5576 4.7793L54.8232 5.08496L55.0752 5.3877L54.9854 5.77148L52.5957 16.0342H53.4541L52.2324 21.8398L52.2314 21.8428L49.627 33.9951L49.5674 34.2764L49.3408 34.4531C45.9274 37.1199 41.056 38.8593 35.9346 38.8594C30.8846 38.8594 26.6636 37.4107 23.6992 34.6299C20.7283 31.8428 19.1094 27.8011 19.1094 22.7998C19.1094 16.1578 21.3699 10.449 25.335 6.39746C29.3015 2.34451 34.9246 0.000106836 41.5508 0ZM29.5 21.9316C29.5001 14.1703 34.0963 9.31934 41.4492 9.31934L41.9004 9.3252C46.5223 9.43926 49.9446 11.3144 52.1211 14.5791L54.2148 5.5918C51.6617 2.52807 46.9634 0.791992 41.5508 0.791992C28.6833 0.792206 19.9005 9.88125 19.9004 22.7998C19.9004 32.2999 25.9373 37.8911 35.4775 38.0635L35.9346 38.0674C40.8876 38.0673 45.5856 36.3822 48.8535 33.8291L51.457 21.6768L52.4785 16.8262H35.6279L34.1982 24.2812H41.5508L40.5811 29.1826C39.713 29.5911 38.385 29.7441 37.1084 29.7441V28.9531C38.1678 28.9531 39.1771 28.8389 39.8887 28.6035L40.5879 25.0723H33.2402L34.9736 16.0342H52.1406L51.4629 15.0186C49.38 11.8943 46.0677 10.1114 41.4492 10.1113C37.9525 10.1113 35.1865 11.26 33.292 13.2598C31.393 15.2643 30.2921 18.2061 30.292 21.9316C30.292 24.2026 30.9592 25.9397 32.0918 27.1055C33.2216 28.2683 34.9016 28.953 37.1084 28.9531V29.7441C32.3598 29.744 29.5 26.7824 29.5 21.9316Z" fill="#C6F24E"/>
<path d="M99.4558 75.0934C100.375 71.9785 100.477 71.9785 100.886 70.1914L103.03 60.0299L97.4644 44.9665L95.4219 39.3496H103.132L104.817 44.609L107.779 53.596L115.285 43.6389L118.451 39.3496H126.672L122.434 44.6601L110.23 60.0299L107.83 71.1615L107.013 75.0934H99.4558Z" fill="#C7FF0B"/>
<path d="M61.7656 46.0388L63.1954 39.3496H91.8414L90.4117 46.0388H84.0799H79.6886L74.327 71.1615L73.51 75.0934H65.9528C66.8719 71.9785 66.974 71.9785 67.3314 70.1914L72.4888 46.0388H68.0463H61.7656Z" fill="#C7FF0B"/>
<path d="M41.4219 75.0934L42.3921 70.5488L48.1621 43.2814L48.9791 39.3496H56.23L55.2598 43.8942L49.4897 71.1615L48.6727 75.0934H41.4219Z" fill="#C7FF0B"/>
<path d="M21.9122 75.8596C13.1294 75.8596 7.35938 70.2938 7.35938 60.5919C7.35938 48.9497 14.6613 38.584 26.7121 38.584C32.0736 38.584 36.3629 40.5754 38.4054 43.537L36.7203 51.0943C34.8821 47.3667 31.1545 45.2221 26.7631 45.2221C19.5633 45.2221 14.8656 51.2475 14.8656 58.5494C14.8656 65.0854 18.9506 68.813 25.3844 68.813C29.8269 68.813 33.4012 66.8215 35.3416 64.3195C34.014 71.7746 29.3673 75.8596 21.9122 75.8596Z" fill="#C7FF0B"/>
<path d="M80.1797 9.0388L81.6094 2.34961H110.256L108.826 9.0388H102.494H98.1026L92.7411 34.1615L91.9241 38.0934H84.3668C85.2859 34.9785 85.3881 34.9785 85.7455 33.1914L90.9028 9.0388H86.4604H80.1797Z" fill="#C7FF0B"/>
<path d="M59.8359 38.0934L60.8061 33.5488L66.5762 6.28142L67.3932 2.34961H74.6441L73.6739 6.89417L67.9038 34.1615L67.0868 38.0934H59.8359Z" fill="#C7FF0B"/>
<path d="M38.5157 38.8596C28.9671 38.8596 22.8906 33.1917 22.8906 23.5919C22.8906 10.8774 31.2138 1.58398 43.5709 1.58398C49.0346 1.58398 53.8345 3.57542 56.1834 6.79236L54.5494 14.1454C52.5069 10.3667 48.524 8.22211 43.4688 8.22211C35.4009 8.22211 30.2947 14.1964 30.2947 22.826C30.2947 28.8003 33.818 32.3747 39.4859 32.3747C41.3752 32.3747 43.4178 31.9662 44.6943 30.996L46.073 24.2557H37.086L38.2094 18.4346H54.4983L53.5281 22.9792L51.0771 34.6214C47.8602 37.1745 43.4177 38.8596 38.5157 38.8596Z" fill="#C7FF0B"/>
<path d="M103.707 38.5586L103.884 39.1084L105.566 44.3613L108.055 51.9121L114.646 43.1689L118.049 38.5586H128.314L123.051 45.1514L123.052 45.1523L110.961 60.3779L108.602 71.3291L107.654 75.8857H98.3945L98.6943 74.8701C99.6335 71.6875 99.7092 71.7747 100.111 70.0156L102.205 60.0898L96.7188 45.2412L96.7178 45.2373L94.2891 38.5586H103.707ZM95.4189 39.3496L97.4619 44.9668L103.027 60.0303L100.883 70.1914C100.474 71.9786 100.372 71.9789 99.4531 75.0938H107.011L107.827 71.1621L110.228 60.0303L122.432 44.6602L126.67 39.3496H118.448L115.282 43.6396L107.776 53.5967L104.814 44.6094L103.13 39.3496H95.4189Z" fill="#C7FF0B"/>
<path d="M92.8145 38.5586L91.0469 46.8311H80.3232L75.0957 71.3223L74.1484 75.8857H64.8887L65.1885 74.8701C66.125 71.6965 66.2015 71.7774 66.5498 70.0361L66.5518 70.0264L71.5049 46.8311H60.7812L62.5498 38.5586H92.8145ZM63.1895 39.3496L61.7598 46.0391H72.4834L67.3262 70.1914C66.9687 71.9786 66.8664 71.9789 65.9473 75.0938H73.5049L74.3213 71.1621L79.6836 46.0391H90.4062L91.8359 39.3496H63.1895Z" fill="#C7FF0B"/>
<path d="M57.21 38.5586L56.0361 44.0596L50.2656 71.3223L49.3184 75.8857H40.4453L41.6191 70.3838L47.3896 43.1182L48.3369 38.5586H57.21ZM48.9805 39.3496L48.1641 43.2822L42.3936 70.5488L41.4238 75.0938H48.6748L49.4912 71.1621L55.2617 43.8945L56.2314 39.3496H48.9805Z" fill="#C7FF0B"/>
<path d="M14.8682 58.5498C14.8682 51.2479 19.5668 45.2227 26.7666 45.2227L27.1758 45.2285C31.3886 45.3578 34.9428 47.4836 36.7236 51.0947L38.4082 43.5371C36.3657 40.5755 32.0763 38.584 26.7148 38.584C14.6643 38.5841 7.36239 48.9497 7.3623 60.5918C7.3623 70.2936 13.1324 75.8593 21.915 75.8594C29.3702 75.8594 34.0171 71.7745 35.3447 64.3193C33.4044 66.8214 29.83 68.8134 25.3877 68.8135V68.0215C29.5956 68.0214 32.9346 66.1347 34.7188 63.834L36.124 64.458C35.4368 68.3171 33.8747 71.3844 31.4453 73.4844C29.0129 75.5869 25.7902 76.6514 21.915 76.6514C17.354 76.6513 13.4956 75.2025 10.7783 72.417C8.06255 69.633 6.57031 65.5998 6.57031 60.5918C6.5704 48.6634 14.0901 37.7921 26.7148 37.792C32.0701 37.792 36.5365 39.7183 38.8438 42.7871L39.0605 43.0879L39.2559 43.3721L37.0068 53.46L36.0137 51.4443C34.323 48.016 30.8898 46.0138 26.7666 46.0137C20.1138 46.0137 15.6602 51.5666 15.6602 58.5498L15.6719 59.1221C15.7839 61.9386 16.7267 64.0889 18.2627 65.5605C19.9061 67.135 22.3212 68.0215 25.3877 68.0215V68.8135L24.791 68.8018C18.8987 68.5841 15.1187 65.1161 14.8809 59.1543L14.8682 58.5498Z" fill="#C7FF0B"/>
<path d="M111.236 1.55859L109.468 9.83105H98.7451L93.5176 34.3271L93.5166 34.3262L92.5703 38.8857H83.3096L83.6094 37.8701C84.5459 34.6965 84.6224 34.7774 84.9707 33.0361L84.9727 33.0264L89.9268 9.83105H79.2031L80.9707 1.55859H111.236ZM81.6113 2.34961L80.1816 9.03906H90.9043L85.7471 33.1914C85.3896 34.9786 85.2873 34.9789 84.3682 38.0938H91.9258L92.7432 34.1621L98.1045 9.03906H108.827L110.258 2.34961H81.6113Z" fill="#C7FF0B"/>
<path d="M75.625 1.55859L74.4502 7.05957L68.6797 34.3252L67.7334 38.8857H58.8594L60.0342 33.3838L65.8037 6.11816L66.751 1.55859H75.625ZM67.3955 2.34961L66.5781 6.28223L60.8086 33.5488L59.8379 38.0938H67.0889L67.9062 34.1621L73.6758 6.89453L74.6465 2.34961H67.3955Z" fill="#C7FF0B"/>
<path d="M30.29 22.8262C30.29 14.1966 35.396 8.22266 43.4639 8.22266L43.9346 8.22852C48.766 8.35787 52.5652 10.485 54.5439 14.1455L56.1787 6.79199C53.9032 3.67566 49.3272 1.70969 44.0762 1.58984L43.5664 1.58398C31.2093 1.58398 22.8858 10.8773 22.8857 23.5918L22.8896 24.0391C23.0759 33.3675 29.1113 38.8594 38.5107 38.8594C43.4127 38.8594 47.8553 37.1742 51.0723 34.6211L53.5234 22.9795L54.4932 18.4346H38.2041L37.0811 24.2559H46.0684L44.6895 30.9961C43.413 31.9662 41.3706 32.3749 39.4814 32.375V31.583C41.1761 31.5829 42.8823 31.2341 43.9766 30.5273L45.0977 25.0479H36.1221L37.5508 17.6426H55.4717L54.2979 23.1445L51.8467 34.7842L51.7881 35.0645L51.5645 35.2412C48.2073 37.9056 43.5912 39.6514 38.5107 39.6514C33.581 39.6514 29.4598 38.1859 26.5674 35.3955C23.6712 32.6014 22.0938 28.5625 22.0938 23.5918C22.0938 17.0618 24.2329 11.3596 28.0107 7.28223C31.7937 3.19956 37.179 0.791992 43.5664 0.791992C49.1831 0.792098 54.2692 2.83572 56.8174 6.3252L57.0293 6.61426L56.9512 6.96387L54.8574 16.3887L53.8477 14.5215C51.9691 11.0466 48.2866 9.01368 43.4639 9.01367C39.6381 9.01367 36.5665 10.4237 34.4434 12.8135C32.3118 15.213 31.0811 18.6644 31.0811 22.8262L31.0908 23.3496C31.1875 25.9272 32.0022 27.9215 33.3281 29.29C34.7398 30.7471 36.817 31.583 39.4814 31.583V32.375L38.9561 32.3643C33.7692 32.1559 30.5049 28.8383 30.2998 23.3789L30.29 22.8262Z" fill="#C7FF0B"/>
</svg>
